<svg width="919" height="370" viewBox="0 0 919 370" fill="none" xmlns="http://www.w3.org/2000/svg">
<g filter="url(#filter0_i_904_941)">
<mask id="mask0_904_941" style="mask-type:alpha" maskUnits="userSpaceOnUse" x="295" y="0" width="64" height="370">
<path d="M295.978 0.169922H358.883V369.5H295.978V0.169922Z" fill="#111111"/>
</mask>
<g mask="url(#mask0_904_941)">
<path d="M295.978 0.169922H358.883V369.5H295.978V0.169922Z" fill="url(#paint0_linear_904_941)"/>
</g>
<mask id="mask1_904_941" style="mask-type:alpha" maskUnits="userSpaceOnUse" x="0" y="0" width="247" height="370">
<path d="M246.764 62.5411V0.169922H62.9488H0.043457V369.5H62.9488H246.764V307.128H62.9488V215.478H246.764V153.654H62.9488V62.5411H246.764Z" fill="#111111"/>
</mask>
<g mask="url(#mask1_904_941)">
<path d="M246.764 62.5411V0.169922H154.857H62.9488H0.043457V369.501H62.9488H246.764V307.128H62.9488V215.478H246.764V153.654H62.9488V62.5411H246.764Z" fill="url(#paint1_linear_904_941)"/>
</g>
<mask id="mask2_904_941" style="mask-type:alpha" maskUnits="userSpaceOnUse" x="391" y="87" width="228" height="283">
<path d="M451.038 275.615C451.356 290.864 456.836 302.143 467.479 309.45C478.123 316.765 491.545 320.411 507.748 320.411C514.102 320.411 520.218 319.775 526.096 318.505C531.973 317.242 537.136 315.169 541.584 312.309C546.032 309.45 549.606 305.876 552.306 301.587C555.007 297.298 556.357 292.135 556.357 286.099C556.357 281.333 554.927 277.124 552.068 273.47C549.209 269.824 544.523 266.401 538.01 263.224C531.497 260.055 523.078 257.108 512.752 254.408C502.427 251.715 489.798 248.618 474.866 245.115C464.382 242.573 454.454 239.635 445.082 236.299C435.709 232.963 427.608 228.602 420.777 223.194C413.947 217.793 408.466 211.121 404.336 203.178C400.206 195.244 397.982 185.387 397.664 173.632C397.664 157.119 400.603 143.37 406.48 132.41C412.358 121.449 420.221 112.633 430.07 105.961C439.919 99.2889 451.277 94.5234 464.144 91.664C477.011 88.8045 490.275 87.375 503.936 87.375C517.597 87.375 530.703 88.884 543.252 91.9023C555.801 94.9285 566.921 99.7655 576.611 106.437C586.301 113.109 594.323 121.925 600.677 132.886C607.031 143.847 610.844 157.27 612.114 173.155H553.021C552.068 159.502 547.144 150.042 538.248 144.8C529.353 139.558 517.28 136.937 502.03 136.937C490.275 136.937 480.347 138.605 472.245 141.941C464.144 145.277 460.093 151.877 460.093 161.718C460.093 170.939 465.256 177.921 475.581 182.686C485.907 187.452 501.554 192.058 522.522 196.506C534.277 199.366 545.953 202.392 557.549 205.561C569.145 208.738 579.47 213.186 588.525 218.904C597.58 224.623 604.887 232.089 610.447 241.302C616.006 250.524 618.786 262.271 618.786 276.568C618.786 293.724 615.689 308.187 609.494 319.934C603.298 331.689 595.038 341.308 584.713 348.766C574.387 356.232 562.473 361.561 548.971 364.73C535.468 367.9 521.569 369.496 507.272 369.496C492.34 369.496 478.043 367.828 464.382 364.492C450.721 361.156 438.648 355.843 428.164 348.527C417.68 341.22 409.181 331.538 402.668 319.458C396.155 307.385 392.581 292.771 391.946 275.615H451.039H451.038Z" fill="#111111"/>
</mask>
<g mask="url(#mask2_904_941)">
<path d="M451.038 275.615C451.356 290.864 456.836 302.143 467.479 309.45C478.123 316.765 491.545 320.411 507.748 320.411C514.102 320.411 520.218 319.775 526.096 318.505C531.973 317.242 537.136 315.169 541.584 312.309C546.032 309.45 549.606 305.876 552.306 301.587C555.007 297.298 556.357 292.135 556.357 286.099C556.357 281.333 554.927 277.124 552.068 273.47C549.209 269.824 544.523 266.401 538.01 263.224C531.497 260.055 523.078 257.108 512.752 254.408C502.427 251.715 489.798 248.618 474.866 245.115C464.382 242.573 454.454 239.635 445.082 236.299C435.709 232.963 427.608 228.602 420.777 223.194C413.947 217.793 408.466 211.121 404.336 203.178C400.206 195.244 397.982 185.387 397.664 173.632C397.664 157.119 400.603 143.37 406.48 132.41C412.358 121.449 420.221 112.633 430.07 105.961C439.919 99.2889 451.277 94.5234 464.144 91.664C477.011 88.8045 490.275 87.375 503.936 87.375C517.597 87.375 530.703 88.884 543.252 91.9023C555.801 94.9285 566.921 99.7655 576.611 106.437C586.301 113.109 594.323 121.925 600.677 132.886C607.031 143.847 610.844 157.27 612.114 173.155H553.021C552.068 159.502 547.144 150.042 538.248 144.8C529.353 139.558 517.28 136.937 502.03 136.937C490.275 136.937 480.347 138.605 472.245 141.941C464.144 145.277 460.093 151.877 460.093 161.718C460.093 170.939 465.256 177.921 475.581 182.686C485.907 187.452 501.554 192.058 522.522 196.506C534.277 199.366 545.953 202.392 557.549 205.561C569.145 208.738 579.47 213.186 588.525 218.904C597.58 224.623 604.887 232.089 610.447 241.302C616.006 250.524 618.786 262.271 618.786 276.568C618.786 293.724 615.689 308.187 609.494 319.934C603.298 331.689 595.038 341.308 584.713 348.766C574.387 356.232 562.473 361.561 548.971 364.73C535.468 367.9 521.569 369.496 507.272 369.496C492.34 369.496 478.043 367.828 464.382 364.492C450.721 361.156 438.648 355.843 428.164 348.527C417.68 341.22 409.181 331.538 402.668 319.458C396.155 307.385 392.581 292.771 391.946 275.615H451.039H451.038Z" fill="url(#paint2_linear_904_941)"/>
</g>
<mask id="mask3_904_941" style="mask-type:alpha" maskUnits="userSpaceOnUse" x="650" y="87" width="269" height="283">
<path d="M784.577 315.471C744.415 315.471 711.857 287.556 711.857 253.121H916.028C917.374 245.092 918.202 236.873 918.202 228.436C918.202 150.53 858.376 87.375 784.577 87.375C710.778 87.375 650.952 150.53 650.952 228.436C650.952 306.342 710.778 369.496 784.577 369.496C841.47 369.496 889.929 331.895 909.205 279.006H850.559C839.074 300.479 813.932 315.471 784.577 315.471V315.471ZM784.577 141.4C824.739 141.4 857.297 169.315 857.297 203.749H711.857C711.857 169.315 744.415 141.4 784.577 141.4V141.4Z" fill="#111111"/>
</mask>
<g mask="url(#mask3_904_941)">
<path d="M784.577 315.471C744.415 315.471 711.857 287.556 711.857 253.121H916.028C917.374 245.092 918.202 236.873 918.202 228.436C918.202 150.53 858.376 87.375 784.577 87.375C710.778 87.375 650.952 150.53 650.952 228.436C650.952 306.342 710.778 369.496 784.577 369.496C841.47 369.496 889.929 331.895 909.205 279.006H850.559C839.074 300.479 813.932 315.471 784.577 315.471V315.471ZM784.577 141.4C824.739 141.4 857.297 169.315 857.297 203.749H711.857C711.857 169.315 744.415 141.4 784.577 141.4V141.4Z" fill="url(#paint3_linear_904_941)"/>
</g>
</g>
<defs>
<filter id="filter0_i_904_941" x="0.043457" y="0.169922" width="918.159" height="387.693" filterUnits="userSpaceOnUse" color-interpolation-filters="sRGB">
<feFlood flood-opacity="0" result="BackgroundImageFix"/>
<feBlend mode="normal" in="SourceGraphic" in2="BackgroundImageFix" result="shape"/>
<feColorMatrix in="SourceAlpha" type="matrix" values="0 0 0 0 0 0 0 0 0 0 0 0 0 0 0 0 0 0 127 0" result="hardAlpha"/>
<feOffset dy="32.1354"/>
<feGaussianBlur stdDeviation="9.18154"/>
<feComposite in2="hardAlpha" operator="arithmetic" k2="-1" k3="1"/>
<feColorMatrix type="matrix" values="0 0 0 0 0 0 0 0 0 0 0 0 0 0 0 0 0 0 0.8 0"/>
<feBlend mode="normal" in2="shape" result="effect1_innerShadow_904_941"/>
</filter>
<linearGradient id="paint0_linear_904_941" x1="327.43" y1="0.169922" x2="327.43" y2="369.5" gradientUnits="userSpaceOnUse">
<stop offset="1"/>
</linearGradient>
<linearGradient id="paint1_linear_904_941" x1="123.404" y1="0.169922" x2="123.404" y2="369.5" gradientUnits="userSpaceOnUse">
<stop offset="1"/>
</linearGradient>
<linearGradient id="paint2_linear_904_941" x1="505.366" y1="87.375" x2="505.366" y2="369.496" gradientUnits="userSpaceOnUse">
<stop offset="1"/>
</linearGradient>
<linearGradient id="paint3_linear_904_941" x1="784.577" y1="87.375" x2="784.577" y2="369.496" gradientUnits="userSpaceOnUse">
<stop offset="1"/>
</linearGradient>
</defs>
</svg>
