<svg width="85" height="85" viewBox="0 0 85 85" fill="none" xmlns="http://www.w3.org/2000/svg">
<path d="M81.1236 0H3.87641C1.73554 0 0 1.73549 0 3.87637V30.3437H19.6634L34.624 45.3044L40.1335 39.7948L22.9069 22.5681L22.9061 22.5689L22.8918 22.5546H7.79167V7.79167H77.2083V22.5546H62.8447L62.844 22.554L62.8434 22.5546H62.8237L55.0346 30.3437H55.0543L34.4392 50.9588L25.5271 42.0467L17.7354 34.255H0V81.1236C0 83.2645 1.73554 85 3.87641 85H81.1236C83.2645 85 85 83.2645 85 81.1236V34.255H67.7007L67.6945 34.2611L67.689 34.2557L37.0323 64.9123L42.5419 70.4218L70.917 42.0467H77.2083V77.2083H7.79167V42.0467H14.508L34.4398 61.9785L39.9494 56.469L39.9487 56.4683L66.0734 30.3437H85V3.87637C85 1.73549 83.2645 0 81.1236 0Z" fill="white"/>
</svg>
