<svg width="104" height="28" viewBox="0 0 104 28" fill="none" xmlns="http://www.w3.org/2000/svg">
<path d="M0 0H6.27563L9.07367 20.04H9.15362L11.9517 0H18.2273V28H14.0702V6.8H13.9902L10.7925 28H7.11504L3.91727 6.8H3.83732V28H0V0Z" fill="white"/>
<path d="M24.9061 0H30.8619L35.4187 28H31.0218L30.2224 22.44V22.52H25.2259L24.4264 28H20.3493L24.9061 0ZM29.7027 18.72L27.7441 4.88H27.6642L25.7455 18.72H29.7027Z" fill="white"/>
<path d="M37.5519 0H44.2673C46.4524 0 48.0913 0.586667 49.1838 1.76C50.2764 2.93333 50.8227 4.65333 50.8227 6.92V21.08C50.8227 23.3467 50.2764 25.0667 49.1838 26.24C48.0913 27.4133 46.4524 28 44.2673 28H37.5519V0ZM44.1873 24C44.9068 24 45.4531 23.7867 45.8262 23.36C46.2259 22.9333 46.4258 22.24 46.4258 21.28V6.72C46.4258 5.76 46.2259 5.06667 45.8262 4.64C45.4531 4.21333 44.9068 4 44.1873 4H41.9489V24H44.1873Z" fill="white"/>
<path d="M53.7906 0H65.7823V4H58.1876V11.4H64.2234V15.4H58.1876V24H65.7823V28H53.7906V0Z" fill="white"/>
<path d="M74.7135 0H81.3489C83.614 0 85.2662 0.533334 86.3054 1.6C87.3447 2.64 87.8644 4.25333 87.8644 6.44V7.56C87.8644 9 87.6245 10.1733 87.1449 11.08C86.6918 11.9867 85.9857 12.64 85.0263 13.04V13.12C87.2115 13.8667 88.3041 15.8133 88.3041 18.96V21.36C88.3041 23.52 87.7311 25.1733 86.5853 26.32C85.466 27.44 83.8139 28 81.6287 28H74.7135V0ZM80.8293 11.4C81.7087 11.4 82.3615 11.1733 82.7879 10.72C83.2409 10.2667 83.4674 9.50667 83.4674 8.44V6.88C83.4674 5.86667 83.2809 5.13333 82.9078 4.68C82.5614 4.22667 82.0018 4 81.229 4H79.1105V11.4H80.8293ZM81.6287 24C82.4015 24 82.9744 23.8 83.3475 23.4C83.7206 22.9733 83.9071 22.2533 83.9071 21.24V18.8C83.9071 17.52 83.6806 16.64 83.2276 16.16C82.8012 15.6533 82.0817 15.4 81.0691 15.4H79.1105V24H81.6287Z" fill="white"/>
<path d="M94.2868 16.08L88.9705 0H93.6472L96.6451 10.28H96.7251L99.723 0H104L98.6837 16.08V28H94.2868V16.08Z" fill="white"/>
</svg>
